<svg xmlns="http://www.w3.org/2000/svg" viewBox="0 0 16 16" shape-rendering="crispEdges">
  <rect width="16" height="16" fill="#000000"/>
  <g fill="#f59e0b">
    <rect x="7" y="2" width="2" height="1"/>
    <rect x="6" y="3" width="4" height="1"/>
    <rect x="5" y="4" width="6" height="1"/>
    <rect x="4" y="5" width="2" height="1"/><rect x="10" y="5" width="2" height="1"/>
    <rect x="4" y="6" width="2" height="1"/><rect x="10" y="6" width="2" height="1"/>
    <rect x="3" y="7" width="2" height="1"/><rect x="11" y="7" width="2" height="1"/>
    <rect x="3" y="8" width="2" height="1"/><rect x="11" y="8" width="2" height="1"/>
    <rect x="3" y="9" width="2" height="1"/><rect x="11" y="9" width="2" height="1"/>
    <rect x="4" y="10" width="2" height="1"/><rect x="10" y="10" width="2" height="1"/>
    <rect x="4" y="11" width="8" height="1"/>
  </g>
  <g fill="#fde68a">
    <rect x="6" y="5" width="4" height="1"/>
    <rect x="6" y="6" width="4" height="1"/>
    <rect x="5" y="7" width="6" height="1"/>
    <rect x="5" y="8" width="6" height="1"/>
    <rect x="5" y="9" width="6" height="1"/>
    <rect x="6" y="10" width="4" height="1"/>
  </g>
  <g fill="#78716c">
    <rect x="2" y="13" width="12" height="1"/>
    <rect x="3" y="14" width="10" height="1"/>
  </g>
</svg>
